# xmcd
#
# Track frame offsets: 
#        150
#        29797
#        31324
#        36192
#        44397
#        46776
#        48737
#        51611
#        59989
#        62491
#        67721
#        81187
#        91013
#        105488
#        123214
#        124688
#        126995
#        137189
#        140292
#        153301
#        161956
#        187738
#        200777
#        229163
#
# Disc length: 3346 seconds
#
# Revision: 0
# Processed by: cddbd v1.5.2PL0 Copyright (c) Steve Scherf et al.
# Submitted via: ExactAudioCopy v0.95b3
#
DISCID=5d0d1018
DTITLE=Jimi Hendrix  - Unsurpassed Masters Volume 4
DYEAR=1900
DGENRE=
TTITLE0=Power Of Soul Session 21 April 1969
TTITLE1=Power Of Soul Session 21 April 1969
TTITLE2=Power Of Soul Session 21 April 1969
TTITLE3=Power Of Soul Session 21 April 1969
TTITLE4=Power Of Soul Session 21 April 1969
TTITLE5=Power Of Soul Session 21 April 1969
TTITLE6=Power Of Soul Session 21 April 1969
TTITLE7=Power Of Soul Session 21 April 1969
TTITLE8=Power Of Soul Session 21 April 1969
TTITLE9=Power Of Soul Session 21 April 1969
TTITLE10=Power Of Soul Session 21 April 1969
TTITLE11=Power Of Soul Session 21 April 1969
TTITLE12=Power Of Soul Session 21 April 1969
TTITLE13=Power Of Soul Session 21 April 1969
TTITLE14=Power Of Soul Session 21 April 1969
TTITLE15=Power Of Soul Session 21 April 1969
TTITLE16=Power Of Soul Session 21 April 1969
TTITLE17=Power Of Soul Session 21 April 1969
TTITLE18=Power Of Soul Session 21 April 1969
TTITLE19=Power Of Soul Session 21 April 1969
TTITLE20=How Can I Live Session Noel-Mitch 27 August 1968
TTITLE21=How Can I Live Session Noel-Mitch 27 August 1968
TTITLE22=How Can I Live Session Noel-Mitch 27 August 1968
TTITLE23=How Can I Live Session Noel-Mitch 27 August 1968
EXTD=
EXTT0=
EXTT1=
EXTT2=
EXTT3=
EXTT4=
EXTT5=
EXTT6=
EXTT7=
EXTT8=
EXTT9=
EXTT10=
EXTT11=
EXTT12=
EXTT13=
EXTT14=
EXTT15=
EXTT16=
EXTT17=
EXTT18=
EXTT19=
EXTT20=
EXTT21=
EXTT22=
EXTT23=
PLAYORDER=
